<svg xmlns="http://www.w3.org/2000/svg" viewBox="0 0 180 50" fill="none">
  <!-- FORK -->
  <line x1="6" y1="3" x2="6" y2="15" stroke="#4E7A52" stroke-width="1.8" stroke-linecap="round"/>
  <line x1="9" y1="3" x2="9" y2="15" stroke="#4E7A52" stroke-width="1.8" stroke-linecap="round"/>
  <line x1="12" y1="3" x2="12" y2="15" stroke="#4E7A52" stroke-width="1.8" stroke-linecap="round"/>
  <path d="M6,15 C6,18 12,18 12,15" stroke="#4E7A52" stroke-width="1.8" stroke-linecap="round"/>
  <line x1="9" y1="18" x2="9" y2="47" stroke="#4E7A52" stroke-width="1.8" stroke-linecap="round"/>

  <!-- PLATE circle -->
  <circle cx="25" cy="27" r="16" stroke="#4E7A52" stroke-width="1.8"/>

  <!-- LEAF/SPROUT inside plate -->
  <line x1="25" y1="35" x2="25" y2="22" stroke="#4E7A52" stroke-width="1.5" stroke-linecap="round"/>
  <path d="M25,27 Q20,21 18.5,24 Q17.5,28 25,27Z" stroke="#4E7A52" stroke-width="1.4" stroke-linejoin="round"/>
  <path d="M25,27 Q30,21 31.5,24 Q32.5,28 25,27Z" stroke="#4E7A52" stroke-width="1.4" stroke-linejoin="round"/>

  <!-- SPOON -->
  <ellipse cx="41" cy="11" rx="4" ry="7.5" stroke="#4E7A52" stroke-width="1.8"/>
  <line x1="41" y1="18.5" x2="41" y2="47" stroke="#4E7A52" stroke-width="1.8" stroke-linecap="round"/>

  <!-- TEXT -->
  <text x="52" y="23" font-family="Arial, 'Helvetica Neue', sans-serif" font-weight="900" font-size="19" fill="#3D0A0A">Nutrici&#xF3;n</text>
  <text x="52" y="44" font-family="Arial, 'Helvetica Neue', sans-serif" font-weight="900" font-size="19" fill="#3D0A0A">Click</text>

  <!-- CURSOR (mouse pointer outline after Click) -->
  <path d="M112,34 L112,46 L115,43 L117.5,48 L119.2,47.2 L116.8,42.5 L121,42.5 Z"
        stroke="#4E7A52" stroke-width="1.3" stroke-linejoin="round" stroke-linecap="round"/>
</svg>
